# xmcd CD database file
#
# Track frame offsets:
#	150
#	15573
#	28973
#	41246
#	50551
#	65856
#	80347
#	96685
#	111152
#	123307
#	139373
#	156423
#	170039
#	187594
#	200834
#	214387
#	228945
#	240787
#	253818
#	268391
#	276192
#	286859
#	300173
#	310644
#	322635
#
# Disc length: 4489 seconds
#
# Revision: 0
# Processed by: cddbd v1.5.2PL0 Copyright (c) Steve Scherf et al.
# Submitted via: CDex 1.51
#
DISCID=72118719
DTITLE=Marlene Dietrich - The Very Best of Marlene Dietrich
DYEAR=2001
DGENRE=Jazz
TTITLE0=Lili Marlene
TTITLE1=Falling in Love Again
TTITLE2=You've Got that Look (That Leaves Me Weak)
TTITLE3=See What the Boys in the Backroom Will Have
TTITLE4=Illusions
TTITLE5=Black Market
TTITLE6=The Surrey With the Fringe on Top
TTITLE7=Mean to Me
TTITLE8=I Never Slept a Last Night
TTITLE9=Something I Dreamed las Night
TTITLE10=Miss Otis Regrets
TTITLE11=Come Rain or Come Shine
TTITLE12=Peter
TTITLE13=No Love, No Nothin'
TTITLE14=Annie Doesn't Live Here Anymore
TTITLE15=Let's Call It a Day
TTITLE16=Taking a Chance on Love
TTITLE17=La Vie en Rose
TTITLE18=Time on My Hands
TTITLE19=I May Never Go Home Anymore
TTITLE20=Another Spring, Another Love
TTITLE21=Such Trying Times
TTITLE22=Near You
TTITLE23=Ich Bin Die Fesche Lola
TTITLE24=Lili Marlene
EXTD=YEAR: 2001
EXTT0=
EXTT1=
EXTT2=
EXTT3=
EXTT4=
EXTT5=
EXTT6=
EXTT7=
EXTT8=
EXTT9=
EXTT10=
EXTT11=
EXTT12=
EXTT13=
EXTT14=
EXTT15=
EXTT16=
EXTT17=
EXTT18=
EXTT19=
EXTT20=
EXTT21=
EXTT22=
EXTT23=
EXTT24=
PLAYORDER=
